<svg width="54" height="54" viewBox="0 0 54 54" fill="none" xmlns="http://www.w3.org/2000/svg">
<g clip-path="url(#clip0_49_14)">
<path fill-rule="evenodd" clip-rule="evenodd" d="M10.006 7.61906L9.83138 7.44526C9.54197 7.15585 9.15552 6.98541 8.74883 6.96516L8.667 6.96264C8.23078 6.96264 7.81143 7.13644 7.50262 7.44526C7.48322 7.46466 7.46466 7.48406 7.44525 7.50263C6.80232 8.14641 6.80232 9.18845 7.44525 9.83138L7.61906 10.006C6.51965 11.8437 6.48338 13.9345 7.51529 15.239C7.66463 15.428 7.8874 15.5444 8.12786 15.5579C8.36833 15.5722 8.60286 15.4828 8.77329 15.3124C10.6633 13.4224 13.7835 10.3022 15.3124 8.77332C15.4828 8.60289 15.5722 8.36831 15.5579 8.12784C15.5444 7.88737 15.428 7.66464 15.239 7.51529C13.9345 6.48339 11.8437 6.51966 10.006 7.61906ZM9.35971 10.4338C8.80199 11.1713 8.48225 11.9888 8.44175 12.7465C8.43247 12.9161 8.43749 13.0815 8.45859 13.241L13.241 8.45859C13.0807 8.4375 12.9161 8.43244 12.7466 8.44173C11.9889 8.48223 11.1712 8.80199 10.4338 9.35971C10.4195 9.37152 10.4043 9.38335 10.3891 9.39432C10.2077 9.53522 10.0305 9.69048 9.86007 9.86092C9.69047 10.0305 9.53522 10.2077 9.39431 10.3899C9.38334 10.4051 9.37152 10.4195 9.35971 10.4338Z" fill="#6C2165"/>
<path fill-rule="evenodd" clip-rule="evenodd" d="M46.3809 10.006L46.5547 9.83138C47.1977 9.18845 47.1977 8.14641 46.5547 7.50263C46.5353 7.48406 46.516 7.46466 46.4966 7.44526C46.1886 7.13644 45.7692 6.96264 45.333 6.96264C44.8959 6.96264 44.4774 7.13644 44.1686 7.44526L43.994 7.61906C42.1563 6.51966 40.0655 6.48339 38.761 7.51529C38.572 7.66464 38.4556 7.88737 38.4421 8.12784C38.4278 8.36831 38.5172 8.60289 38.6876 8.77332C40.2165 10.3022 43.3367 13.4224 45.2267 15.3124C45.3971 15.4828 45.6317 15.5722 45.8722 15.5579C46.1127 15.5444 46.3354 15.428 46.4847 15.239C47.5166 13.9345 47.4803 11.8437 46.3809 10.006ZM43.5654 9.35971C42.8288 8.80199 42.0112 8.48223 41.2535 8.44173C41.0839 8.43244 40.9177 8.4375 40.7582 8.45859H40.7591L45.5414 13.2418C45.5625 13.0815 45.5676 12.9161 45.5583 12.7465C45.5178 11.9888 45.198 11.1713 44.6403 10.4338C44.6285 10.4195 44.6167 10.4051 44.6057 10.3899C44.4648 10.2077 44.3095 10.0305 44.1391 9.86092C43.9695 9.69048 43.7923 9.53522 43.6101 9.39432C43.5949 9.38335 43.5806 9.37152 43.5654 9.35971Z" fill="#6C2165"/>
<path fill-rule="evenodd" clip-rule="evenodd" d="M27 10.9689C18.1518 10.9689 10.9689 18.1518 10.9689 27C10.9689 35.8483 18.1518 43.0312 27 43.0312C35.8483 43.0312 43.0312 35.8483 43.0312 27C43.0312 18.1518 35.8483 10.9689 27 10.9689ZM27 12.6562C34.9165 12.6562 41.3439 19.0835 41.3439 27C41.3439 34.9165 34.9165 41.3439 27 41.3439C19.0835 41.3439 12.6562 34.9165 12.6562 27C12.6562 19.0835 19.0835 12.6562 27 12.6562Z" fill="#6C2165"/>
<path fill-rule="evenodd" clip-rule="evenodd" d="M26.1562 18.5625V27C26.1562 27.4657 26.5343 27.8438 27 27.8438H33.75C34.2157 27.8438 34.5938 27.4657 34.5938 27C34.5938 26.5343 34.2157 26.1562 33.75 26.1562H27.8438V18.5625C27.8438 18.0968 27.4657 17.7188 27 17.7188C26.5343 17.7188 26.1562 18.0968 26.1562 18.5625Z" fill="#6C2165"/>
<path fill-rule="evenodd" clip-rule="evenodd" d="M27 2.53125C24.8881 2.53125 22.8387 2.79956 20.8829 3.30328C20.4323 3.41971 20.1606 3.8804 20.277 4.33097C20.3926 4.78237 20.8533 5.05407 21.3047 4.93763C22.8631 4.536 24.4865 4.29469 26.1563 4.23394V5.90625C26.1563 6.372 26.5343 6.75 27 6.75C27.4658 6.75 27.8438 6.372 27.8438 5.90625V4.23394C29.5127 4.29469 31.1369 4.536 32.6954 4.93763C33.1468 5.05407 33.6066 4.78237 33.723 4.33097C33.8394 3.8804 33.5678 3.41971 33.1172 3.30328C31.1614 2.79956 29.1119 2.53125 27 2.53125Z" fill="#6C2165"/>
<path fill-rule="evenodd" clip-rule="evenodd" d="M14.5235 41.8601L13.1836 44.1804L10.4372 48.9375C10.136 49.4598 10.136 50.1027 10.4372 50.625C10.7384 51.1473 11.2961 51.4688 11.8986 51.4688H15.309C16.2127 51.4688 17.0488 50.9861 17.5011 50.2031L19.0198 47.5715L20.3656 45.241C22.4362 45.9945 24.6704 46.4062 27 46.4062C29.3296 46.4062 31.5639 45.9945 33.6344 45.241L36.499 50.2031C36.9512 50.9861 37.7873 51.4688 38.691 51.4688H42.1014C42.7039 51.4688 43.2616 51.1473 43.5628 50.625C43.8641 50.1027 43.8641 49.4598 43.5628 48.9375L39.4765 41.8601C43.7122 38.2987 46.4063 32.9619 46.4063 27C46.4063 16.2894 37.7106 7.59375 27 7.59375C16.2895 7.59375 7.59378 16.2894 7.59378 27C7.59378 32.9619 10.2878 38.2987 14.5235 41.8601ZM14.1801 45.83L11.8986 49.7812H15.309C15.6102 49.7812 15.8886 49.6201 16.0397 49.3594L17.1012 47.5209C16.0827 47.0281 15.1065 46.4619 14.1801 45.83ZM39.8199 45.83C38.8927 46.4619 37.9173 47.0281 36.8989 47.5209L37.9603 49.3594C38.1114 49.6201 38.3898 49.7812 38.691 49.7812H42.1014L39.8199 45.83ZM38.1645 42.9629L35.2418 44.6504L36.0526 46.0553C37.0744 45.5684 38.0506 45.0023 38.9737 44.3635L38.1645 42.9629ZM15.0263 44.3635C15.9494 45.0023 16.9256 45.5684 17.9474 46.0553L18.7583 44.6504L17.4066 43.8699C17.3475 43.8362 17.2884 43.8016 17.2294 43.767L15.8355 42.9629L15.0263 44.3635ZM18.241 42.4027L18.0782 42.309C12.8174 39.2335 9.28128 33.5264 9.28128 27C9.28128 17.2209 17.221 9.28125 27 9.28125C36.7791 9.28125 44.7188 17.2209 44.7188 27C44.7188 33.5264 41.1826 39.2335 35.9218 42.309L35.759 42.4027C33.1746 43.8767 30.1852 44.7188 27 44.7188C23.8149 44.7188 20.8246 43.8767 18.241 42.4027Z" fill="#6C2165"/>
<path d="M38.8125 27.8438C39.2785 27.8438 39.6562 27.466 39.6562 27C39.6562 26.534 39.2785 26.1562 38.8125 26.1562C38.3465 26.1562 37.9688 26.534 37.9688 27C37.9688 27.466 38.3465 27.8438 38.8125 27.8438Z" fill="#6C2165"/>
<path d="M27 39.6562C27.466 39.6562 27.8438 39.2785 27.8438 38.8125C27.8438 38.3465 27.466 37.9688 27 37.9688C26.534 37.9688 26.1562 38.3465 26.1562 38.8125C26.1562 39.2785 26.534 39.6562 27 39.6562Z" fill="#6C2165"/>
<path d="M27 16.0312C27.466 16.0312 27.8438 15.6535 27.8438 15.1875C27.8438 14.7215 27.466 14.3438 27 14.3438C26.534 14.3438 26.1562 14.7215 26.1562 15.1875C26.1562 15.6535 26.534 16.0312 27 16.0312Z" fill="#6C2165"/>
<path d="M15.1875 27.8438C15.6535 27.8438 16.0312 27.466 16.0312 27C16.0312 26.534 15.6535 26.1562 15.1875 26.1562C14.7215 26.1562 14.3438 26.534 14.3438 27C14.3438 27.466 14.7215 27.8438 15.1875 27.8438Z" fill="#6C2165"/>
</g>
<defs>
<clipPath id="clip0_49_14">
<rect width="54" height="54" fill="white"/>
</clipPath>
</defs>
</svg>
