<svg width="22" height="19" viewBox="0 0 22 19" fill="none" xmlns="http://www.w3.org/2000/svg">
<path d="M3.51652 16.153C3.43967 16.0877 3.33301 16.0502 3.22429 16.0502C3.11557 16.0502 3.00891 16.0877 2.93202 16.153C2.85513 16.2183 2.8109 16.3089 2.8109 16.4012C2.8109 16.4935 2.85509 16.5841 2.93202 16.6493C3.00891 16.7146 3.11557 16.7522 3.22429 16.7522C3.33301 16.7522 3.43967 16.7147 3.51652 16.6493C3.59341 16.5841 3.63768 16.4935 3.63768 16.4012C3.63768 16.3089 3.59345 16.2183 3.51652 16.153Z" fill="#21406C"/>
<path d="M19.4095 6.60553C19.3326 6.54021 19.2263 6.50269 19.1172 6.50269C19.0085 6.50269 18.9018 6.54021 18.8249 6.60553C18.7481 6.67082 18.7038 6.76139 18.7038 6.85371C18.7038 6.94602 18.748 7.03659 18.8249 7.10184C18.9018 7.16713 19.0085 7.20472 19.1172 7.20472C19.2263 7.20472 19.3326 7.16717 19.4095 7.10184C19.4867 7.03659 19.531 6.94602 19.531 6.85371C19.531 6.76139 19.4867 6.67082 19.4095 6.60553Z" fill="#21406C"/>
<path d="M21.044 0.286835C20.9664 0.221018 20.8612 0.184021 20.7516 0.184021L10.5824 0.184477C10.3541 0.184477 10.1691 0.341664 10.1691 0.535497V1.53931L6.25059 2.43086C6.03004 2.48106 5.89916 2.67352 5.95828 2.86076L7.98914 9.29642L6.23227 10.7882C6.00867 10.511 5.63323 10.3287 5.20855 10.3287H1.24013C0.556299 10.3287 0 10.8011 0 11.3817V17.1032C0 17.6838 0.556299 18.1562 1.24013 18.1562H5.20859C5.78953 18.1562 6.27824 17.8152 6.41218 17.3566L6.9037 17.7206C7.28315 18.0015 7.7693 18.1563 8.27277 18.1563H20.7517C20.9799 18.1563 21.165 17.9991 21.165 17.8052V0.535041C21.165 0.44195 21.1215 0.352651 21.044 0.286835ZM5.6219 17.1032C5.6219 17.2967 5.43646 17.4542 5.20851 17.4542H1.24009C1.01214 17.4542 0.826698 17.2968 0.826698 17.1032V11.3817C0.826698 11.1882 1.01214 11.0307 1.24009 11.0307H2.81093V15.0743C2.81093 15.2681 2.99605 15.4253 3.22432 15.4253C3.45259 15.4253 3.63771 15.2681 3.63771 15.0743V11.0307H5.20855C5.4365 11.0307 5.62194 11.1882 5.62194 11.3817V17.1032H5.6219ZM6.86385 3.01812L10.1691 2.26609V3.5668L9.89202 3.62984C9.78607 3.65395 9.69582 3.71275 9.64101 3.79338C9.58619 3.87401 9.57131 3.9698 9.59971 4.05973C9.75858 4.56313 9.4055 5.08239 8.81266 5.21729C8.70662 5.24144 8.61621 5.30034 8.56144 5.38115C8.50666 5.46192 8.49191 5.55788 8.52055 5.64789L10.1319 10.7144H9.30223L8.87466 9.29407C8.86106 9.24886 8.83725 9.20719 8.80538 9.17096L6.86385 3.01812ZM10.1691 5.17654V8.13848L9.41509 5.76786C9.73005 5.62977 9.9878 5.42316 10.1691 5.17654ZM16.108 17.4542H8.27269C7.96905 17.4542 7.67583 17.3609 7.44698 17.1914L6.44868 16.4522V11.5973L8.25346 10.0648L8.58078 11.1523C8.62758 11.3077 8.7924 11.4164 8.98128 11.4164L17.1087 11.4168C17.4278 11.4168 17.6874 11.6372 17.6874 11.9082C17.6874 12.1792 17.4278 12.3996 17.1087 12.3996H12.9442C12.7159 12.3996 12.5308 12.5568 12.5308 12.7507C12.5308 12.9445 12.7159 13.1017 12.9442 13.1017H18.4026C18.7217 13.1017 18.9814 13.3221 18.9814 13.5931C18.9814 13.8641 18.7217 14.0845 18.4026 14.0845H12.9442C12.7159 14.0845 12.5308 14.2417 12.5308 14.4356C12.5308 14.6294 12.7159 14.7866 12.9442 14.7866H17.5181C17.8372 14.7866 18.0968 15.007 18.0968 15.278C18.0968 15.549 17.8372 15.7694 17.5181 15.7694H12.9442C12.7159 15.7694 12.5308 15.9266 12.5308 16.1205C12.5308 16.3143 12.7159 16.4715 12.9442 16.4715H16.108C16.4271 16.4715 16.6868 16.6919 16.6868 16.9629C16.6867 17.2337 16.4271 17.4542 16.108 17.4542ZM20.3383 17.4542H20.3382H17.3883C17.4685 17.3042 17.5135 17.1379 17.5135 16.9628C17.5135 16.7876 17.4685 16.6213 17.3883 16.4713H17.5181C18.2931 16.4713 18.9236 15.936 18.9236 15.2779C18.9236 15.086 18.8696 14.9046 18.7744 14.7438C19.3695 14.605 19.8081 14.1418 19.8081 13.593C19.8081 13.3268 19.7048 13.0807 19.5306 12.882V8.43323C19.5306 8.23939 19.3455 8.08221 19.1172 8.08221C18.889 8.08221 18.7038 8.23939 18.7038 8.43323V12.4275C18.6067 12.4095 18.506 12.3996 18.4025 12.3996H18.389C18.4691 12.2497 18.5141 12.0834 18.5141 11.9082C18.5141 11.2501 17.8836 10.7148 17.1087 10.7148H16.4441C17.1497 10.4578 17.6453 9.8623 17.6453 9.17012C17.6453 8.24382 16.7579 7.49021 15.667 7.49021C14.5761 7.49021 13.6886 8.24382 13.6886 9.17012C13.6886 9.8623 14.1842 10.4578 14.8898 10.7148H12.6301V4.04043C13.3685 3.90378 13.9513 3.40901 14.1122 2.78192H17.2217C17.3826 3.40901 17.9653 3.90378 18.7038 4.04043V5.13175C18.7038 5.32558 18.8889 5.48277 19.1172 5.48277C19.3455 5.48277 19.5306 5.32558 19.5306 5.13175V3.72704C19.5306 3.5332 19.3455 3.37602 19.1172 3.37602C18.5034 3.37602 18.0042 2.95202 18.0042 2.4309C18.0042 2.23706 17.8191 2.07988 17.5908 2.07988H13.7431C13.5148 2.07988 13.3297 2.23706 13.3297 2.4309C13.3297 2.95206 12.8304 3.37602 12.2167 3.37602C11.9884 3.37602 11.8033 3.5332 11.8033 3.72704V10.7147H10.9959V0.886446L20.3383 0.88606V17.4542ZM15.667 10.148C15.032 10.148 14.5155 9.70932 14.5155 9.17016C14.5155 8.63099 15.0321 8.19229 15.667 8.19229C16.302 8.19229 16.8186 8.63096 16.8186 9.17012C16.8186 9.70929 16.302 10.148 15.667 10.148Z" fill="#21406C"/>
</svg>
