<svg width="20" height="18" viewBox="0 0 20 18" fill="none" xmlns="http://www.w3.org/2000/svg">
<path d="M3.12935 17.4536H9.22731V11.4902H7.03643V9.52431H9.22731V7.06689C9.22731 5.71186 10.4558 4.60948 11.9659 4.60948H14.7045V6.57541H12.5136C11.9096 6.57541 11.4182 7.01634 11.4182 7.55838V9.52431H14.6057L14.2405 11.4902H11.4182V17.4536H16.3477C17.8578 17.4536 19.0863 16.3512 19.0863 14.9962V3.13503C19.0863 1.77999 17.8578 0.677612 16.3477 0.677612H3.12935C1.61927 0.677612 0.390747 1.77999 0.390747 3.13503V14.9962C0.390747 16.3512 1.61927 17.4536 3.12935 17.4536ZM1.48619 3.13503C1.48619 2.32203 2.22333 1.66058 3.12935 1.66058H16.3477C17.2537 1.66058 17.9909 2.32203 17.9909 3.13503V14.9962C17.9909 15.8092 17.2537 16.4706 16.3477 16.4706H12.5136V12.4732H15.1685L15.8988 8.54134H12.5136V7.55838H15.8V3.62651H11.9659C9.85177 3.62651 8.13187 5.16982 8.13187 7.06689V8.54134H5.94099V12.4732H8.13187V16.4706H3.12935C2.22333 16.4706 1.48619 15.8092 1.48619 14.9962V3.13503Z" fill="black"/>
</svg>
