<svg width="19" height="17" viewBox="0 0 19 17" fill="none" xmlns="http://www.w3.org/2000/svg">
<path d="M2.99913 16.8944H16.2175C17.7276 16.8944 18.9561 15.792 18.9561 14.4369V2.57582C18.9561 1.22079 17.7276 0.118408 16.2175 0.118408H2.99913C1.48905 0.118408 0.260529 1.22079 0.260529 2.57582V14.4369C0.260529 15.792 1.48905 16.8944 2.99913 16.8944ZM1.35597 2.57582C1.35597 1.76283 2.09311 1.10137 2.99913 1.10137H16.2175C17.1235 1.10137 17.8606 1.76283 17.8606 2.57582V14.4369C17.8606 15.2499 17.1235 15.9114 16.2175 15.9114H2.99913C2.09311 15.9114 1.35597 15.2499 1.35597 14.4369V2.57582Z" fill="black"/>
<path d="M9.60829 12.9297C12.3264 12.9297 14.5378 10.9453 14.5378 8.50636C14.5378 6.06737 12.3264 4.08301 9.60829 4.08301C6.89022 4.08301 4.6788 6.06737 4.6788 8.50636C4.6788 10.9453 6.89022 12.9297 9.60829 12.9297ZM9.60829 5.06597C11.7224 5.06597 13.4423 6.60928 13.4423 8.50636C13.4423 10.4034 11.7224 11.9467 9.60829 11.9467C7.49414 11.9467 5.77424 10.4034 5.77424 8.50636C5.77424 6.60928 7.49414 5.06597 9.60829 5.06597Z" fill="black"/>
<path d="M14.7743 4.82742C15.6695 4.82742 16.3979 4.17386 16.3979 3.37056C16.3979 2.56726 15.6695 1.9137 14.7743 1.9137C13.8791 1.9137 13.1507 2.56726 13.1507 3.37056C13.1507 4.17386 13.8791 4.82742 14.7743 4.82742ZM14.7743 2.88494C15.0726 2.88494 15.3155 3.10284 15.3155 3.37056C15.3155 3.63828 15.0726 3.85618 14.7743 3.85618C14.4759 3.85618 14.2331 3.63828 14.2331 3.37056C14.2331 3.10284 14.4759 2.88494 14.7743 2.88494Z" fill="black"/>
</svg>
