<svg width="58" height="57" viewBox="0 0 58 57" fill="none" xmlns="http://www.w3.org/2000/svg">
<g clip-path="url(#clip0_50_37)" filter="url(#filter0_d_50_37)">
<path fill-rule="evenodd" clip-rule="evenodd" d="M37.6847 14.0965L43.5741 19.9859C43.9032 20.315 44.4381 20.315 44.7672 19.9859C45.0962 19.6568 45.0962 19.1219 44.7672 18.7928L38.8778 12.9035C38.5487 12.5744 38.0138 12.5744 37.6847 12.9035C37.3557 13.2325 37.3557 13.7675 37.6847 14.0965Z" fill="#6C2165"/>
<path fill-rule="evenodd" clip-rule="evenodd" d="M32.623 14.0623L43.5921 25.0313C43.9205 25.3614 44.456 25.3602 44.7839 25.0307C45.1134 24.7028 45.1146 24.1673 44.7846 23.8389L33.8155 12.8698C33.4871 12.5398 32.9516 12.5394 32.6221 12.8689C32.2926 13.1984 32.293 13.7338 32.623 14.0623Z" fill="#6C2165"/>
<path fill-rule="evenodd" clip-rule="evenodd" d="M38.1072 24.6433L43.5917 30.1278C43.9209 30.457 44.4548 30.4574 44.7843 30.1279C45.1138 29.7984 45.1134 29.2645 44.7842 28.9353L39.2997 23.4508C38.9704 23.1216 38.4365 23.1211 38.107 23.4506C37.7775 23.7801 37.7779 24.314 38.1072 24.6433Z" fill="#6C2165"/>
<path fill-rule="evenodd" clip-rule="evenodd" d="M6.21877 39.6562H5.37502C4.90927 39.6562 4.53127 40.0343 4.53127 40.5V43.875C4.53127 46.2046 6.41959 48.0938 8.75002 48.0938H49.25C51.5796 48.0938 53.4688 46.2046 53.4688 43.875V40.5C53.4688 40.0343 53.0908 39.6562 52.625 39.6562H51.7813V8.4375C51.7813 7.03941 50.6481 5.90625 49.25 5.90625C42.2739 5.90625 15.7261 5.90625 8.75002 5.90625C7.35193 5.90625 6.21877 7.03941 6.21877 8.4375V39.6562ZM7.06082 41.3438H6.21877V43.875C6.21877 45.2731 7.35193 46.4062 8.75002 46.4062H49.25C50.6481 46.4062 51.7813 45.2731 51.7813 43.875V41.3438H50.9392H50.9375H36.6528H36.6267L36.6005 41.3454L36.5744 41.3471L36.5482 41.3505L36.5229 41.3539L36.4967 41.3581L36.4714 41.3632L36.4461 41.3691L36.4216 41.3758L36.3963 41.3834L36.3727 41.3918L36.3482 41.4011L36.3246 41.4104L36.301 41.4205L36.2774 41.4315L36.2546 41.4433L36.2326 41.456L36.2107 41.4695L36.1887 41.483L36.1677 41.4973L36.1466 41.5125L36.1263 41.5285L36.1061 41.5446L36.0867 41.5614L36.0681 41.5792L36.0495 41.5977L36.0318 41.6163L36.0149 41.6357L35.9981 41.6559L35.9896 41.6661L35.9812 41.6762L35.9736 41.6872L35.966 41.6981L35.9567 41.7116L35.9508 41.7192L35.2657 42.7478L35.2547 42.7646L35.2429 42.7807L35.2319 42.7967L35.2201 42.8127L35.2091 42.8287L35.1973 42.8448L35.1855 42.8608L35.1737 42.8768L35.1619 42.892L35.1492 42.9081L35.1374 42.9233L35.1248 42.9384L35.113 42.9536L35.1003 42.9688L35.0877 42.984L35.075 42.9983L35.0624 43.0135L35.0489 43.0279L35.0362 43.0422L35.0227 43.0566L35.01 43.0709L34.9965 43.0852L34.9831 43.0996L34.9695 43.1131L34.956 43.1274L34.9417 43.1409L34.9282 43.1544L34.9138 43.1679L34.9004 43.1814L34.886 43.1949L34.8717 43.2076L34.8573 43.2211L34.843 43.2338L34.8286 43.2464L34.8134 43.2599L34.7991 43.2717L34.7839 43.2844L34.7695 43.297L34.7544 43.3088L34.7392 43.3215L34.724 43.3333L34.7088 43.3451L34.6936 43.3569L34.6784 43.3688C34.2473 43.6919 33.7183 43.8742 33.1639 43.875H33.1597H24.8403H24.8125L24.7813 43.8742L24.7534 43.8733L24.7222 43.8725L24.6935 43.8708L24.6631 43.8691L24.6345 43.8666L24.6041 43.864L24.5847 43.8623L24.5652 43.8598L24.5458 43.8581L24.5265 43.8556L24.507 43.8531L24.4876 43.8505L24.4682 43.8472L24.4488 43.8446L24.4294 43.8412L24.4108 43.8379L24.3914 43.8345L24.372 43.8311L24.3527 43.8278C23.7047 43.7003 23.1241 43.3223 22.7461 42.7646L22.7343 42.7478L22.0492 41.7192L22.0416 41.7082L22.034 41.6981C21.8762 41.4762 21.6197 41.3438 21.3472 41.3438H7.06252H7.06082ZM50.0938 39.6562V8.4375C50.0938 7.97175 49.7158 7.59375 49.25 7.59375H8.75002C8.28427 7.59375 7.90627 7.97175 7.90627 8.4375V39.6562H21.3472H21.3666H21.3869L21.4063 39.6571H21.4256L21.4459 39.6579L21.4653 39.6588L21.4847 39.6596L21.505 39.6613L21.5244 39.6622L21.5438 39.6638L21.5632 39.6655L21.5834 39.6672L21.6028 39.6689L21.6223 39.6714L21.6417 39.6731L21.6704 39.6773L21.6999 39.6807L21.7285 39.6849L21.7581 39.69L21.7766 39.6934L21.7961 39.6968L21.8155 39.7001L21.834 39.7035L21.8534 39.7077L21.8728 39.7111L21.8914 39.7153L21.91 39.7195L21.9294 39.7238L21.9479 39.7288L21.9673 39.733L21.9859 39.7381L22.0045 39.7432L22.023 39.7482L22.0416 39.7533L22.0601 39.7592L22.0787 39.7642L22.0973 39.7702L22.1159 39.7761L22.1344 39.782L22.1521 39.7879L22.1707 39.7938L22.1893 39.8005L22.207 39.8073L22.2255 39.8132L22.2433 39.8199L22.261 39.8275L22.2795 39.8343L22.2972 39.841L22.315 39.8486L22.3327 39.8562L22.3504 39.8638L22.3681 39.8714L22.3858 39.879L22.4036 39.8874L22.4204 39.895L22.4381 39.9035L22.4559 39.9119L22.4728 39.9203L22.4896 39.9288L22.5074 39.9381L22.5242 39.9465L22.5411 39.9558L22.558 39.9651L22.5748 39.9743L22.5917 39.9836L22.6086 39.9929L22.6254 40.003L22.6415 40.0123L22.6584 40.0224L22.6744 40.0326L22.6913 40.0427L22.7073 40.0528L22.7233 40.0638L22.7394 40.0739L22.7554 40.0849L22.7714 40.095L22.7875 40.106L22.8035 40.1169L22.8195 40.1288L22.8347 40.1397L22.8508 40.1515L22.8659 40.1625L22.8811 40.1743L22.8963 40.1861L22.9115 40.1979L22.9267 40.2097L22.9419 40.2224L22.957 40.2342L22.9714 40.2469L22.9866 40.2595L23.0009 40.2713L23.0161 40.2848L23.0305 40.2975L23.0448 40.3102L23.0592 40.3237L23.0735 40.3363L23.0879 40.3498L23.1013 40.3633C23.2271 40.484 23.3409 40.6181 23.4405 40.7649L23.4532 40.7835L24.1383 41.812L24.1459 41.823L24.1535 41.8331L24.1611 41.8441L24.1771 41.8652L24.194 41.8854L24.2109 41.9048L24.2286 41.9242L24.2413 41.9377L24.2556 41.9521L24.2682 41.9639L24.286 41.9799L24.2952 41.9875L24.3046 41.996L24.3146 42.0036C24.4581 42.1183 24.6387 42.1841 24.8277 42.1875H24.8403H33.1597H33.1774L33.1985 42.1867L33.2171 42.1858L33.2381 42.1841L33.2559 42.1816L33.277 42.1791L33.2947 42.1765L33.3158 42.1732L33.3335 42.1689L33.3538 42.1647L33.3715 42.1605L33.3909 42.1554L33.4086 42.1495L33.428 42.1436L33.4449 42.1377L33.4643 42.1301L33.4879 42.1208L33.5115 42.1107L33.5343 42.0997L33.5571 42.0879L33.5799 42.0753L33.6018 42.0618L33.6238 42.0483L33.6449 42.0339L33.6659 42.0187L33.6862 42.0027L33.7056 41.9867L33.725 41.9698L33.7444 41.9521L33.763 41.9335L33.7807 41.915L33.7976 41.8956L33.8145 41.8753L33.8262 41.8601L33.8389 41.8441L33.8499 41.8289L33.8617 41.812L34.5468 40.7835L34.5578 40.7666L34.5688 40.7506L34.5805 40.7346C34.5839 40.7287 34.5881 40.7236 34.5915 40.7185L34.6034 40.7025L34.6152 40.6865L34.627 40.6704L34.6388 40.6544L34.6506 40.6392L34.6624 40.6232L34.675 40.608L34.6869 40.5928C35.1611 40.0089 35.8732 39.6622 36.6334 39.6562H36.6528H50.0938Z" fill="#6C2165"/>
<path fill-rule="evenodd" clip-rule="evenodd" d="M48.4064 10.125C48.4064 9.65925 48.0285 9.28125 47.5625 9.28125H10.4375C9.97144 9.28125 9.59356 9.65925 9.59356 10.125V37.125C9.59356 37.5907 9.97144 37.9688 10.4375 37.9688H47.5625C48.0285 37.9688 48.4064 37.5907 48.4064 37.125V10.125ZM46.7185 10.9688V36.2812H11.2814V10.9688H46.7185Z" fill="#6C2165"/>
</g>
<defs>
<filter id="filter0_d_50_37" x="-2" y="0" width="62" height="62" filterUnits="userSpaceOnUse" color-interpolation-filters="sRGB">
<feFlood flood-opacity="0" result="BackgroundImageFix"/>
<feColorMatrix in="SourceAlpha" type="matrix" values="0 0 0 0 0 0 0 0 0 0 0 0 0 0 0 0 0 0 127 0" result="hardAlpha"/>
<feOffset dy="4"/>
<feGaussianBlur stdDeviation="2"/>
<feComposite in2="hardAlpha" operator="out"/>
<feColorMatrix type="matrix" values="0 0 0 0 0 0 0 0 0 0 0 0 0 0 0 0 0 0 0.25 0"/>
<feBlend mode="normal" in2="BackgroundImageFix" result="effect1_dropShadow_50_37"/>
<feBlend mode="normal" in="SourceGraphic" in2="effect1_dropShadow_50_37" result="shape"/>
</filter>
<clipPath id="clip0_50_37">
<rect width="54" height="54" fill="white" transform="translate(2)"/>
</clipPath>
</defs>
</svg>
