<svg width="28" height="28" viewBox="0 0 28 28" fill="none" xmlns="http://www.w3.org/2000/svg">
<path d="M14 24.5H13.9405C13.7667 24.487 13.6014 24.4196 13.468 24.3075C13.4314 24.2765 13.3978 24.2421 13.3676 24.2048L2.52932 11.2852C2.4448 11.1886 2.38513 11.0729 2.35548 10.948C2.35548 10.9328 2.34848 10.9177 2.34498 10.9025C2.31193 10.7071 2.35358 10.5063 2.46165 10.3402L2.48382 10.3075L6.71882 4.31667C6.73398 4.29333 6.74915 4.27233 6.76665 4.25367C6.89053 4.10645 7.06241 4.00771 7.25198 3.97483C7.28443 3.96989 7.31717 3.96716 7.34998 3.96667L13.9416 3.5H14H14.0571L20.65 3.96667C20.6864 3.96873 20.7227 3.97341 20.7585 3.98067C20.9665 4.01939 21.1514 4.13734 21.2741 4.30967L25.5173 10.311C25.5261 10.3226 25.5343 10.3347 25.5418 10.3472C25.6389 10.4959 25.6829 10.6731 25.6666 10.85C25.6617 10.8953 25.6531 10.9402 25.641 10.9842C25.6091 11.096 25.5525 11.1993 25.4753 11.2863L14.6335 24.2037C14.6154 24.2263 14.596 24.2477 14.5751 24.2678C14.507 24.334 14.4281 24.3881 14.3418 24.4277C14.271 24.4596 14.196 24.4812 14.119 24.4918C14.0795 24.4973 14.0398 24.5 14 24.5ZM9.27032 11.5628L14 21.7735L18.7296 11.5628H9.27032ZM20.517 11.5628L17.2946 18.5197L23.128 11.5628H20.517ZM4.86848 11.5628L10.7018 18.5197L7.48298 11.5628H4.86848ZM21.196 6.993L20.8926 9.96917H23.2983L21.196 6.993ZM14 5.6805L10.3506 9.96917H17.6493L14 5.6805ZM6.80398 6.993L4.70165 9.96917H7.10732L6.80398 6.993ZM15.7231 5.21617L19.3095 9.43133L19.7167 5.49617L15.7231 5.21617ZM12.2745 5.21617L8.28332 5.49617L8.68582 9.43133L12.2745 5.21617Z" fill="#2E3A59"/>
</svg>
