<svg width="54" height="54" viewBox="0 0 54 54" fill="none" xmlns="http://www.w3.org/2000/svg">
<g clip-path="url(#clip0_48_7)">
<path fill-rule="evenodd" clip-rule="evenodd" d="M43.1713 6.26062C41.9589 5.48437 40.5397 5.0625 39.0775 5.0625C37.0634 5.0625 35.1312 5.86238 33.7078 7.28663C26.7368 14.2577 14.591 26.4035 14.591 26.4035L14.5758 26.4187C14.4897 26.5089 14.4281 26.6136 14.3893 26.7249L8.55399 42.5655L2.77849 48.341C2.53718 48.5823 2.46464 48.9451 2.59542 49.2607C2.7262 49.5754 3.03333 49.7812 3.37505 49.7812H11.8126C12.0361 49.7812 12.2504 49.6927 12.4091 49.534L13.9658 47.9773L29.8064 42.1411C29.9177 42.1031 30.0223 42.0407 30.1126 41.9555L30.1278 41.9403C30.1278 41.9403 42.2736 29.7945 49.2446 22.8234C50.6689 21.3992 51.4688 19.4678 51.4688 17.4538C51.4688 15.9916 51.0469 14.5724 50.2706 13.3599L50.4799 13.1507C51.7979 11.8327 51.7979 9.69553 50.4799 8.37759L48.1537 6.05137C46.8358 4.73259 44.6986 4.73259 43.3806 6.05137L43.1713 6.26062ZM9.2813 44.2243L12.307 47.25L11.4632 48.0937H5.41187L9.2813 44.2243ZM28.0024 41.0079L15.5233 28.5289L10.2592 42.8161L13.7152 46.2712L28.0024 41.0079ZM41.9411 7.49081C41.0721 7.00903 40.0883 6.75 39.0775 6.75C37.5106 6.75 36.0087 7.37185 34.9009 8.47969L16.3806 27L29.5313 40.1507L48.0516 21.6304C49.1586 20.5225 49.7813 19.0207 49.7813 17.4538C49.7813 16.443 49.5222 15.4592 49.0404 14.5901L37.7216 25.909C37.5629 26.0677 37.3486 26.1563 37.1251 26.1563H29.3862C28.3627 26.1563 27.4397 25.5395 27.0482 24.5936C26.6558 23.6478 26.8726 22.5593 27.5966 21.8354L41.9411 7.49081ZM47.1049 7.38872L46.9606 7.24444C46.3017 6.58547 45.2326 6.58547 44.5737 7.24444L28.7896 23.0285C28.5483 23.2698 28.4766 23.6326 28.6065 23.9482C28.7373 24.2629 29.0453 24.4688 29.3862 24.4688H36.7757L49.2869 11.9576C49.9458 11.2978 49.9458 10.2296 49.2869 9.57066L48.2988 8.58262L36.0341 20.8465C35.705 21.1756 35.1701 21.1756 34.841 20.8465C34.5119 20.5175 34.5119 19.9825 34.841 19.6535L47.1049 7.38872Z" fill="#6C2165"/>
</g>
<defs>
<clipPath id="clip0_48_7">
<rect width="54" height="54" fill="white"/>
</clipPath>
</defs>
</svg>
