<svg width="48" height="48" viewBox="0 0 48 48" fill="none" xmlns="http://www.w3.org/2000/svg">
<path d="M23.7 45.3H4.19999C2.69999 45.3 1.64999 44.1 1.64999 42.75C1.64999 37.2 6.14999 32.7 11.7 32.7H16.35C21.9 32.7 26.4 37.2 26.4 42.75C26.25 44.25 25.05 45.3 23.7 45.3Z" stroke="#6C2165" stroke-width="1.5" stroke-miterlimit="10" stroke-linecap="round" stroke-linejoin="round"/>
<path d="M13.8 10.95C10.05 10.95 6.89999 13.95 6.89999 17.85C6.89999 21.75 9.89999 27.45 13.8 27.45C17.7 27.45 20.7 21.6 20.7 17.85C20.7 14.1 17.7 10.95 13.8 10.95Z" stroke="#6C2165" stroke-width="1.5" stroke-miterlimit="10" stroke-linecap="round" stroke-linejoin="round"/>
<path d="M43.2 33H28.05C26.25 33 24.75 31.5 24.75 29.7C24.75 25.35 28.2 21.9 32.55 21.9H38.7C43.05 21.9 46.5 25.35 46.5 29.7C46.5 31.5 45 33 43.2 33Z" stroke="#6C2165" stroke-width="1.5" stroke-miterlimit="10" stroke-linecap="round" stroke-linejoin="round"/>
<path d="M35.55 2.70001C32.25 2.70001 29.55 5.40001 29.55 8.70001C29.55 12 32.25 17.25 35.55 17.25C38.85 17.25 41.55 12 41.55 8.70001C41.55 5.40001 39 2.70001 35.55 2.70001Z" stroke="#6C2165" stroke-width="1.5" stroke-miterlimit="10" stroke-linecap="round" stroke-linejoin="round"/>
</svg>
