<svg width="19" height="15" viewBox="0 0 19 15" fill="none" xmlns="http://www.w3.org/2000/svg">
<path d="M18.8258 2.62966C17.6498 2.6783 17.6754 2.67433 17.5425 2.68432L18.239 0.899492C18.239 0.899492 16.0649 1.61713 15.5138 1.74551C14.0663 0.578108 11.9148 0.526528 10.3766 1.37485C9.11701 2.06971 8.44092 3.26296 8.66643 4.65767C6.21495 4.35242 4.14944 3.30968 2.51868 1.55186L2.00291 0.995996L1.61751 1.63108C1.13041 2.43358 0.968662 3.35115 1.16193 4.2147C1.24124 4.56897 1.37603 4.90687 1.56274 5.22326L1.12028 5.06942L1.06779 5.73279C1.01459 6.40666 1.26463 7.19329 1.73676 7.83682C1.86969 8.01806 2.04085 8.21708 2.2578 8.41342L2.02916 8.38193L2.30815 9.14207C2.67487 10.1408 3.43654 10.9135 4.42501 11.343C3.43783 11.7189 2.64035 11.9588 1.32953 12.3457L0.130249 12.6994L1.23796 13.2429C1.6603 13.4501 3.1527 14.1421 4.62727 14.3497C7.90504 14.811 11.5955 14.4354 14.0799 12.4276C16.1725 10.7364 16.8591 8.33087 16.7165 5.8275C16.695 5.44852 16.8106 5.08682 17.0423 4.80921C17.5063 4.25335 18.8229 2.63338 18.8258 2.62966ZM16.1664 4.22046C15.7817 4.68135 15.589 5.26998 15.6235 5.87768C15.7674 8.4028 15.0017 10.361 13.3476 11.6978C11.4153 13.2594 8.29857 13.8723 4.79686 13.3794C4.1627 13.2902 3.50729 13.0904 2.96485 12.8909C4.06386 12.5516 4.91254 12.2492 6.28313 11.6671L8.19644 10.8545L6.08401 10.7331C5.07215 10.675 4.2296 10.235 3.71169 9.52054C3.98669 9.5062 4.25185 9.46627 4.51587 9.40023L6.5306 8.89671L4.49904 8.45028C3.51186 8.23334 2.94916 7.70333 2.65091 7.29683C2.45507 7.02972 2.32712 6.75607 2.25039 6.5038C2.45407 6.55282 2.69156 6.58777 3.07454 6.62181L4.9549 6.78871L3.46507 5.74585C2.3916 4.99454 1.96141 3.8658 2.27677 2.78069C5.627 5.89879 9.56061 5.66444 9.95657 5.74687C9.86942 4.98725 9.86713 4.98546 9.84431 4.91314C9.33724 3.30469 10.4485 2.48798 10.9497 2.21152C11.9967 1.63416 13.6585 1.54712 14.8096 2.49835C15.0582 2.70364 15.3944 2.78441 15.7091 2.71427C15.9915 2.6513 16.2233 2.58461 16.4502 2.51204L15.9778 3.72257L16.5809 3.72296C16.467 3.85991 16.3305 4.02386 16.1664 4.22046Z" fill="black"/>
</svg>
